# xmcd CD database file
#
# Track frame offsets:
#	150
#	17557
#	35185
#	55198
#
# Disc length: 966 seconds
#
# Revision: 0
# Processed by: cddbd v1.5.1PL0 Copyright (c) Steve Scherf et al.
# Submitted via: CDex 1.51
#
DISCID=2d03c404
DTITLE=関ジャニ∞ - 好きやねん、大阪。
DYEAR=1900
DGENRE=JPop
TTITLE0=好きやねん、大阪。（コント　三角公園）
TTITLE1=桜援歌（Oh!ENKA)
TTITLE2=無限大
TTITLE3=好きやねん、大阪。（オリジナル・カラオケ）
EXTD=
EXTT0=
EXTT1=
EXTT2=
EXTT3=
PLAYORDER=
